IKResults
version=1
nRows=7
nColumns=40
inDegrees=yes

Units are S.I. units (second, meters, Newtons, ...)
If the header above contains a line with 'inDegrees', this indicates whether rotational values are in degrees (yes) or radians (no).

endheader
time	pelvis_tilt	pelvis_list	pelvis_rotation	pelvis_tx	pelvis_ty	pelvis_tz	hip_flexion_r	hip_adduction_r	hip_rotation_r	knee_angle_r	knee_angle_r_beta	ankle_angle_r	subtalar_angle_r	mtp_angle_r	hip_flexion_l	hip_adduction_l	hip_rotation_l	knee_angle_l	knee_angle_l_beta	ankle_angle_l	subtalar_angle_l	mtp_angle_l	lumbar_extension	lumbar_bending	lumbar_rotation	arm_flex_r	arm_add_r	arm_rot_r	elbow_flex_r	pro_sup_r	wrist_flex_r	wrist_dev_r	arm_flex_l	arm_add_l	arm_rot_l	elbow_flex_l	pro_sup_l	wrist_flex_l	wrist_dev_l
     14.87500000	      8.22078213	     -1.55080719	      7.14114438	     -0.80895556	      0.53647194	      0.30984924	     45.00000012	     -9.99999999	      0.00000000	     60.00014062	      1.04720001	     -4.99999985	      0.00000000	      0.00000000	     45.00000012	     -9.99999999	      0.00000000	     60.00014062	      1.04720001	     -4.99999985	      0.00000000	      0.00000000	    -18.41639909	     -3.51905512	      1.71232212	     89.97928599	    -28.39564208	     27.73176651	     59.88412707	     89.12105434	      0.00000000	      0.00000000	     -3.61554157	    -31.30577740	      0.54610223	    113.24510867	     89.46331773	      0.00000000	      0.00000000
     14.88000000	      8.15483607	     -1.55126009	      7.16442196	     -0.80883562	      0.53642533	      0.30985084	     45.00000012	     -9.99999999	      0.00000000	     60.00014062	      1.04720001	     -4.99999985	      0.00000000	      0.00000000	     45.00000012	     -9.99999999	      0.00000000	     60.00014062	      1.04720001	     -4.99999985	      0.00000000	      0.00000000	    -18.35688760	     -3.55396408	      1.82694441	     89.97934962	    -28.43619278	     27.76277485	     59.60331972	     89.12114325	      0.00000000	      0.00000000	     -3.48180307	    -31.32068570	      0.73501149	    113.21465800	     89.46454943	      0.00000000	      0.00000000
     14.88500000	      8.11281996	     -1.54812340	      7.20614907	     -0.80878916	      0.53641713	      0.30974339	     45.00000012	     -9.99999999	      0.00000000	     60.00014062	      1.04720001	     -4.99999985	      0.00000000	      0.00000000	     45.00000012	     -9.99999999	      0.00000000	     60.00014062	      1.04720001	     -4.99999985	      0.00000000	      0.00000000	    -18.33713235	     -3.57718871	      1.90695243	     89.97939144	    -28.46102838	     27.75550108	     59.32688474	     89.10843832	      0.00000000	      0.00000000	     -3.37049452	    -31.29232567	      0.84444773	    113.26255966	     89.43703165	      0.00000000	      0.00000000
     14.89000000	      8.00026145	     -1.55088359	      7.15881216	     -0.80873764	      0.53624741	      0.30954036	     45.00000012	     -9.99999999	      0.00000000	     60.00014062	      1.04720001	     -4.99999985	      0.00000000	      0.00000000	     45.00000012	     -9.99999999	      0.00000000	     60.00014062	      1.04720001	     -4.99999985	      0.00000000	      0.00000000	    -18.21133922	     -3.59817007	      2.17408092	     89.97938184	    -28.60557662	     27.78473728	     59.09136769	     89.11801268	      0.00000000	      0.00000000	     -3.06862022	    -31.29573170	      1.27642394	    113.05906426	     89.45621773	      0.00000000	      0.00000000
     14.89500000	      7.98057899	     -1.55677520	      7.18835163	     -0.80864736	      0.53624036	      0.30945339	     45.00000012	     -9.99999999	      0.00000000	     60.00014062	      1.04720001	     -4.99999985	      0.00000000	      0.00000000	     45.00000012	     -9.99999999	      0.00000000	     60.00014062	      1.04720001	     -4.99999985	      0.00000000	      0.00000000	    -18.21068273	     -3.60840811	      2.23356132	     89.97941896	    -28.60751722	     27.80114148	     58.82882752	     89.10648115	      0.00000000	      0.00000000	     -3.01038869	    -31.28659669	      1.36290261	    113.10503751	     89.44471072	      0.00000000	      0.00000000
     14.90000000	      7.95923534	     -1.55761309	      7.21046409	     -0.80858731	      0.53619419	      0.30936900	     45.00000012	     -9.99999999	      0.00000000	     60.00014062	      1.04720001	     -4.99999985	      0.00000000	      0.00000000	     45.00000012	     -9.99999999	      0.00000000	     60.00014062	      1.04720001	     -4.99999985	      0.00000000	      0.00000000	    -18.21026800	     -3.61441025	      2.28914927	     89.97945277	    -28.59682346	     27.81624747	     58.62933361	     89.11111282	      0.00000000	      0.00000000	     -2.94542810	    -31.30672502	      1.47792129	    113.08889742	     89.45994371	      0.00000000	      0.00000000
     14.90500000	      7.94233796	     -1.56289273	      7.23273478	     -0.80855005	      0.53615847	      0.30928859	     45.00000012	     -9.99999999	      0.00000000	     60.00014062	      1.04720001	     -4.99999985	      0.00000000	      0.00000000	     45.00000012	     -9.99999999	      0.00000000	     60.00014062	      1.04720001	     -4.99999985	      0.00000000	      0.00000000	    -18.21656681	     -3.61978006	      2.35642960	     89.97947392	    -28.59562970	     27.83598542	     58.42445082	     89.11355759	      0.00000000	      0.00000000	     -2.85988385	    -31.30058764	      1.58802005	    113.09294408	     89.46071742	      0.00000000	      0.00000000
